<svg width="354" height="211" viewBox="0 0 354 211" fill="none" xmlns="http://www.w3.org/2000/svg">
<path d="M191.007 6.00532C183.011 -2.00164 170.049 -2.00179 162.053 6.00499L5.99685 162.283C-1.99883 170.29 -1.99896 183.273 5.99652 191.28L19.2056 204.508C27.2008 212.515 40.1636 212.516 48.159 204.509L162.117 90.3888C170.112 82.382 183.075 82.3822 191.07 90.3892L198.574 97.9039C202.536 101.872 208.96 101.872 212.923 97.9039L220.096 90.7181L234.003 76.7899C241.683 69.098 241.683 56.627 234.003 48.935L194.756 9.63035C194.237 9.11089 193.701 8.61839 193.151 8.15285L191.007 6.00532Z" fill="#171A26"/>
<path d="M267.629 43.4533C262.076 49.0147 262.076 58.0315 267.63 63.5927C273.183 69.1538 273.183 78.1707 267.63 83.7321L252.095 99.2915L224.843 126.585C219.289 132.147 210.285 132.148 204.731 126.586C199.176 121.024 190.172 121.024 184.618 126.586L148.973 162.283C140.978 170.29 140.978 183.273 148.973 191.28L162.183 204.508C170.178 212.515 183.141 212.515 191.136 204.508L233.602 161.98C241.598 153.973 254.561 153.973 262.556 161.98L305.022 204.508C313.017 212.515 325.98 212.515 333.976 204.508L347.185 191.28C355.18 183.273 355.18 170.291 347.185 162.283L304.719 119.755C296.723 111.748 296.723 98.7659 304.719 90.7587L347.185 48.2305C355.18 40.2234 355.18 27.2413 347.185 19.2342L333.976 6.00564C325.98 -2.00145 313.017 -2.00144 305.022 6.00565L267.629 43.4533Z" fill="#171A26"/>
</svg>

